<svg width="24" height="24" viewBox="0 0 24 24" fill="none" xmlns="http://www.w3.org/2000/svg">
<path d="M0.42389 11.5079L5.95397 13.8785L8.09447 21.7848C8.23144 22.2911 8.77055 22.4783 9.1284 22.1423L12.2109 19.2561C12.5341 18.9537 12.9943 18.9386 13.332 19.2202L18.8919 23.8563C19.2746 24.1759 19.817 23.935 19.913 23.4037L23.9859 0.902251C24.0907 0.32193 23.5942 -0.162235 23.113 0.0515018L0.417421 10.1073C-0.142642 10.3554 -0.137767 11.2661 0.42389 11.5079ZM7.74952 12.6165L18.5574 4.97117C18.7516 4.83415 18.9514 5.13581 18.7847 5.31353L9.86504 14.8364C9.55154 15.1715 9.34927 15.6201 9.29199 16.107L8.98815 18.6932C8.94793 19.0385 8.52558 19.0728 8.44261 18.7386L7.27407 14.0226C7.14024 13.4847 7.33529 12.9102 7.74952 12.6165Z" fill="#FBFF22"/>
</svg>
