<svg width="143" height="137" viewBox="0 0 143 137" fill="none" xmlns="http://www.w3.org/2000/svg">
<path d="M43.6133 0.568465C44.0674 0.37436 44.524 0.184852 44.983 0H98.017C98.476 0.184852 98.9326 0.37436 99.3867 0.568465H43.6133Z" fill="#0A142F"/>
<path d="M32.9414 6.25311C33.2373 6.06148 33.5346 5.87198 33.8335 5.68465H109.166C109.465 5.87198 109.763 6.06148 110.059 6.25311H32.9414Z" fill="#0A142F"/>
<path d="M25.3302 11.9378C25.5531 11.7469 25.7772 11.5574 26.0025 11.3693H116.998C117.223 11.5574 117.447 11.7469 117.67 11.9378H25.3302Z" fill="#0A142F"/>
<path d="M19.4154 17.6224C19.592 17.4319 19.7697 17.2425 19.9484 17.0539H123.052C123.23 17.2425 123.408 17.4319 123.585 17.6224H19.4154Z" fill="#0A142F"/>
<path d="M14.6663 23.3071C14.8091 23.1168 14.9529 22.9273 15.0976 22.7386H127.902C128.047 22.9273 128.191 23.1168 128.334 23.3071H14.6663Z" fill="#0A142F"/>
<path d="M10.8117 28.9917C10.9276 28.8016 11.0444 28.6121 11.162 28.4232H131.838C131.956 28.6121 132.072 28.8016 132.188 28.9917H10.8117Z" fill="#0A142F"/>
<path d="M7.69232 34.6763C7.78552 34.4864 7.87954 34.2969 7.97438 34.1079H135.026C135.12 34.2969 135.214 34.4864 135.308 34.6763H7.69232Z" fill="#0A142F"/>
<path d="M5.2066 40.361C5.27987 40.1711 5.35394 39.9816 5.42879 39.7925H137.571C137.646 39.9816 137.72 40.1711 137.793 40.361H5.2066Z" fill="#0A142F"/>
<path d="M3.28651 46.0456C3.34175 45.8558 3.39776 45.6663 3.45453 45.4772H139.545C139.602 45.6663 139.658 45.8558 139.713 46.0456H3.28651Z" fill="#0A142F"/>
<path d="M1.88529 51.7303C1.9238 51.5405 1.96306 51.351 2.00308 51.1618H140.997C141.037 51.351 141.076 51.5405 141.115 51.7303H1.88529Z" fill="#0A142F"/>
<path d="M0.970519 57.4149C0.993201 57.2252 1.01663 57.0357 1.0408 56.8465H141.959C141.983 57.0357 142.007 57.2252 142.029 57.4149H0.970519Z" fill="#0A142F"/>
<path d="M0.520109 63.0996C0.527568 62.9099 0.535771 62.7204 0.544714 62.5311H142.455C142.464 62.7204 142.472 62.9099 142.48 63.0996H0.520109Z" fill="#0A142F"/>
<path d="M0.520109 68.7842C0.512665 68.5949 0.505961 68.4054 0.5 68.2158H142.5C142.494 68.4054 142.487 68.5949 142.48 68.7842H0.520109Z" fill="#0A142F"/>
<path d="M0.970519 74.4689C0.947892 74.2796 0.926009 74.0901 0.904872 73.9004H142.095C142.074 74.0901 142.052 74.2796 142.029 74.4689H0.970519Z" fill="#0A142F"/>
<path d="M1.88529 80.1535C1.84689 79.9643 1.80925 79.7748 1.77236 79.5851H141.228C141.191 79.7748 141.153 79.9643 141.115 80.1535H1.88529Z" fill="#0A142F"/>
<path d="M3.28651 85.8382C3.23147 85.649 3.17719 85.4595 3.12367 85.2697H139.876C139.823 85.4595 139.769 85.649 139.713 85.8382H3.28651Z" fill="#0A142F"/>
<path d="M5.2066 91.5228C5.13362 91.3337 5.06144 91.1442 4.99004 90.9544H138.01C137.939 91.1442 137.866 91.3337 137.793 91.5228H5.2066Z" fill="#0A142F"/>
<path d="M7.69232 97.2075C7.59959 97.0185 7.50767 96.829 7.41657 96.639H135.583C135.492 96.829 135.4 97.0185 135.308 97.2075H7.69232Z" fill="#0A142F"/>
<path d="M10.8117 102.892C10.6965 102.703 10.5822 102.514 10.4687 102.324H132.531C132.418 102.514 132.303 102.703 132.188 102.892H10.8117Z" fill="#0A142F"/>
<path d="M14.6663 108.577C14.5245 108.388 14.3837 108.199 14.2438 108.008H128.756C128.616 108.199 128.475 108.388 128.334 108.577H14.6663Z" fill="#0A142F"/>
<path d="M19.4154 114.261C19.2405 114.073 19.0666 113.883 18.8937 113.693H124.106C123.933 113.883 123.76 114.073 123.585 114.261H19.4154Z" fill="#0A142F"/>
<path d="M25.3302 119.946C25.1105 119.758 24.8919 119.568 24.6745 119.378H118.326C118.108 119.568 117.89 119.758 117.67 119.946H25.3302Z" fill="#0A142F"/>
<path d="M32.9414 125.631C32.652 125.443 32.3641 125.254 32.0776 125.062H110.922C110.636 125.254 110.348 125.443 110.059 125.631H32.9414Z" fill="#0A142F"/>
<path d="M43.6133 131.315C43.1797 131.13 42.7483 130.941 42.3192 130.747H100.681C100.252 130.941 99.8203 131.13 99.3867 131.315H43.6133Z" fill="#0A142F"/>
<path d="M80.5282 136.432C77.5716 136.807 74.5584 137 71.5 137C68.4416 137 65.4284 136.807 62.4718 136.432H80.5282Z" fill="#0A142F"/>
</svg>
